<svg width="42" height="33" viewBox="0 0 42 33" fill="none" xmlns="http://www.w3.org/2000/svg">
<path d="M9.21341 0.0673828C6.92112 0.0673828 5.22691 2.08253 5.30367 4.26621C5.37508 6.36562 5.28046 9.08357 4.59849 11.3013C3.91473 13.5244 2.75966 14.9336 0.87085 15.1147V17.1549C2.75966 17.336 3.91473 18.7452 4.59849 20.9683C5.28046 23.1842 5.37508 25.904 5.30189 28.0016C5.22691 30.1871 6.92112 32.2022 9.21519 32.2022H32.6986C34.9909 32.2022 36.6869 30.1871 36.6119 28.0016C36.5387 25.904 36.6334 23.1842 37.3135 20.9683C37.9991 18.7452 39.1524 17.336 41.0394 17.1549V15.1147C39.1506 14.9336 37.9991 13.5244 37.3135 11.3013C36.6334 9.08536 36.5387 6.36562 36.6119 4.26621C36.6869 2.08253 34.9909 0.0673828 32.6986 0.0673828H9.21341ZM28.1033 19.8478C28.1033 22.8561 25.87 24.6813 22.162 24.6813H15.8493C15.7598 24.6815 15.6711 24.664 15.5884 24.6298C15.5057 24.5956 15.4305 24.5453 15.3671 24.4818C15.3038 24.4184 15.2535 24.343 15.2192 24.26C15.1849 24.177 15.1673 24.088 15.1673 23.9982V8.27141C15.1673 8.18156 15.1849 8.09259 15.2192 8.00959C15.2535 7.9266 15.3038 7.85122 15.3671 7.78777C15.4305 7.72432 15.5057 7.67404 15.5884 7.63982C15.6711 7.6056 15.7598 7.5881 15.8493 7.58834H22.1245C25.2166 7.58834 27.2464 9.27002 27.2464 11.8535C27.2464 13.6643 25.8807 15.2886 24.1418 15.5718V15.6669C26.5091 15.9268 28.1033 17.5744 28.1033 19.8478ZM21.4729 9.75409H17.8737V14.8601H20.9051C23.2492 14.8601 24.5399 13.9135 24.5399 12.2192C24.5399 10.6326 23.4295 9.75588 21.4729 9.75588V9.75409ZM17.8737 16.886V22.5137H21.605C24.0454 22.5137 25.3362 21.5294 25.3362 19.681C25.3362 17.8344 24.0097 16.886 21.4479 16.886H17.8737Z" fill="#56575A"/>
<path d="M9.21341 0.0673828C6.92112 0.0673828 5.22691 2.08253 5.30367 4.26621C5.37508 6.36562 5.28046 9.08357 4.59849 11.3013C3.91473 13.5244 2.75966 14.9336 0.87085 15.1147V17.1549C2.75966 17.336 3.91473 18.7452 4.59849 20.9683C5.28046 23.1842 5.37508 25.904 5.30189 28.0016C5.22691 30.1871 6.92112 32.2022 9.21519 32.2022H32.6986C34.9909 32.2022 36.6869 30.1871 36.6119 28.0016C36.5387 25.904 36.6334 23.1842 37.3135 20.9683C37.9991 18.7452 39.1524 17.336 41.0394 17.1549V15.1147C39.1506 14.9336 37.9991 13.5244 37.3135 11.3013C36.6334 9.08536 36.5387 6.36562 36.6119 4.26621C36.6869 2.08253 34.9909 0.0673828 32.6986 0.0673828H9.21341ZM28.1033 19.8478C28.1033 22.8561 25.87 24.6813 22.162 24.6813H15.8493C15.7598 24.6815 15.6711 24.664 15.5884 24.6298C15.5057 24.5956 15.4305 24.5453 15.3671 24.4818C15.3038 24.4184 15.2535 24.343 15.2192 24.26C15.1849 24.177 15.1673 24.088 15.1673 23.9982V8.27141C15.1673 8.18156 15.1849 8.09259 15.2192 8.00959C15.2535 7.9266 15.3038 7.85122 15.3671 7.78777C15.4305 7.72432 15.5057 7.67404 15.5884 7.63982C15.6711 7.6056 15.7598 7.5881 15.8493 7.58834H22.1245C25.2166 7.58834 27.2464 9.27002 27.2464 11.8535C27.2464 13.6643 25.8807 15.2886 24.1418 15.5718V15.6669C26.5091 15.9268 28.1033 17.5744 28.1033 19.8478ZM21.4729 9.75409H17.8737V14.8601H20.9051C23.2492 14.8601 24.5399 13.9135 24.5399 12.2192C24.5399 10.6326 23.4295 9.75588 21.4729 9.75588V9.75409ZM17.8737 16.886V22.5137H21.605C24.0454 22.5137 25.3362 21.5294 25.3362 19.681C25.3362 17.8344 24.0097 16.886 21.4479 16.886H17.8737Z" fill="#C7C8C9"/>
</svg>
