<svg width="44" height="33" viewBox="0 0 44 33" fill="none" xmlns="http://www.w3.org/2000/svg">
<path d="M37.3373 18.5405C35.8425 18.5482 34.5432 18.9083 33.4554 19.4405C33.0561 18.6499 32.657 17.9457 32.5866 17.429C32.5082 16.8265 32.4144 16.4585 32.5082 15.7385C32.6022 15.0184 33.0249 13.9931 33.017 13.9148C33.0093 13.8366 32.923 13.4687 32.0621 13.461C31.2012 13.4531 30.4577 13.6253 30.3716 13.8522C30.2855 14.0792 30.1211 14.5958 30.0115 15.1279C29.8628 15.9107 28.2898 18.7047 27.3898 20.1683C27.1001 19.5971 26.8496 19.0961 26.7948 18.6969C26.7165 18.0944 26.6226 17.7264 26.7165 17.0064C26.8105 16.2863 27.2332 15.2611 27.2253 15.1827C27.2174 15.1045 27.1313 14.7366 26.2704 14.7289C25.4094 14.721 24.6658 14.8932 24.5799 15.1201C24.4938 15.3472 24.3998 15.8793 24.2198 16.3959C24.0397 16.9126 21.9501 21.5773 21.4022 22.7825C21.1808 23.2703 20.9486 23.7531 20.7056 24.2305C20.7056 24.2305 20.6978 24.254 20.6743 24.2931C20.5979 24.4428 20.5197 24.5915 20.4396 24.7392V24.7469C20.3221 24.9584 20.1969 25.154 20.1343 25.154C20.0873 25.154 20.0012 24.5905 20.1499 23.8235C20.4629 22.2034 21.2065 19.6832 21.1988 19.5971C21.1988 19.5501 21.3396 19.1119 20.7135 18.8848C20.1029 18.6578 19.8839 19.0335 19.829 19.0335C19.7743 19.0335 19.735 19.1666 19.735 19.1666C19.735 19.1666 20.4161 16.3333 18.4359 16.3333C17.1993 16.3333 15.493 17.6873 14.6477 18.9083C13.6868 19.4312 12.7268 19.9556 11.7675 20.4815C11.3059 20.7398 10.8284 20.9981 10.3823 21.2406C10.3509 21.2094 10.3197 21.1701 10.2883 21.1389C7.89328 18.5796 3.46349 16.7716 3.65131 13.3358C3.7218 12.0835 4.15216 8.7962 12.1589 4.80465C18.7489 1.5565 23.9929 2.45649 24.9008 4.45234C26.1999 7.30136 22.091 12.5922 15.2817 13.3591C12.6833 13.6488 11.3214 12.6469 10.9771 12.2713C10.6171 11.8799 10.5622 11.8564 10.4291 11.9348C10.2101 12.0522 10.3509 12.4044 10.4291 12.6078C10.6327 13.1399 11.4701 14.0792 12.8867 14.5411C14.139 14.9479 17.1836 15.175 20.87 13.7505C24.9946 12.1538 28.2193 7.71611 27.2723 3.99849C26.3251 0.225981 20.0638 -1.01843 14.139 1.08686C10.6171 2.33933 6.79758 4.31152 4.05045 6.87873C0.786679 9.93101 0.270049 12.5843 0.481367 13.6958C1.2407 17.6403 6.68026 20.2075 8.85605 22.1094C8.74644 22.172 8.64456 22.2269 8.55862 22.2739C7.47064 22.8139 3.3225 24.9818 2.2894 27.275C1.11549 29.8735 2.47739 31.7364 3.37738 31.9866C6.17152 32.7616 9.04387 31.3685 10.5857 29.0673C12.1275 26.7663 11.9397 23.7765 11.2275 22.4068C11.2197 22.3912 11.2119 22.3754 11.1962 22.3598C11.478 22.1955 11.7675 22.0233 12.0493 21.859C12.5673 21.5528 13.0918 21.2579 13.6225 20.9744C13.3563 21.7024 13.1606 22.5712 13.0668 23.8235C12.9493 25.295 13.5519 27.2045 14.3424 27.9558C14.6947 28.2848 15.1095 28.2925 15.3757 28.2925C16.2992 28.2925 16.7141 27.5255 17.1758 26.6176C17.7393 25.5063 18.248 24.2149 18.248 24.2149C18.248 24.2149 17.6141 27.7056 19.336 27.7056C19.9621 27.7056 20.596 26.8915 20.8779 26.4768V26.4845C20.8779 26.4845 20.8935 26.461 20.9248 26.4063C20.9875 26.3046 21.0266 26.2418 21.0266 26.2418V26.2263C21.277 25.7879 21.8406 24.7939 22.678 23.1425C23.7581 21.0137 24.7991 18.3527 24.7991 18.3527C24.7991 18.3527 24.8931 19.0022 25.2138 20.0823C25.4018 20.7163 25.7929 21.4129 26.1061 22.0859C25.8557 22.4382 25.6991 22.6338 25.6991 22.6338L25.707 22.6417C25.5034 22.9077 25.2843 23.1972 25.0416 23.4792C24.1884 24.4965 23.1711 25.6629 23.0301 25.9992C22.8657 26.3984 22.9049 26.6881 23.2181 26.9229C23.4451 27.0951 23.8519 27.1184 24.2668 27.0951C25.0339 27.0402 25.5739 26.8524 25.8399 26.7351C26.2548 26.5864 26.74 26.3593 27.1939 26.0227C28.0315 25.4044 28.54 24.52 28.4932 23.354C28.4697 22.7121 28.2584 22.0703 28.0001 21.4676C28.0784 21.3581 28.1488 21.2485 28.2272 21.1389C29.5498 19.2057 30.5752 17.0846 30.5752 17.0846C30.5752 17.0846 30.6692 17.7342 30.9899 18.8144C31.1465 19.3623 31.4674 19.9571 31.7491 20.5362C30.5047 21.546 29.7376 22.7199 29.4637 23.4869C28.9707 24.9114 29.3541 25.5531 30.082 25.7018C30.4107 25.7723 30.8803 25.6157 31.2247 25.467C31.663 25.3262 32.1796 25.0836 32.6727 24.7234C33.5103 24.1053 34.3163 23.2442 34.2693 22.0782C34.2458 21.546 34.105 21.0214 33.9093 20.5127C34.9658 20.0746 36.3277 19.8319 38.0651 20.0353C41.7908 20.4736 42.5265 22.7981 42.3855 23.7766C42.2447 24.7548 41.462 25.2871 41.2038 25.4514C40.9454 25.6159 40.8594 25.6706 40.8829 25.7879C40.9141 25.9601 41.0394 25.9524 41.2586 25.921C41.5639 25.8663 43.2153 25.1305 43.2856 23.3303C43.4031 21.0293 41.2116 18.517 37.3373 18.5405ZM8.59773 28.2299C7.36104 29.576 5.63928 30.0848 4.89572 29.6544C4.09744 29.1925 4.41048 27.2045 5.92881 25.7802C6.8523 24.9114 8.04199 24.1051 8.83255 23.6121C9.01248 23.5025 9.27868 23.3461 9.5996 23.1504C9.65432 23.119 9.68571 23.1034 9.68571 23.1034L9.87353 22.9859C10.4291 25.0209 9.89703 26.8133 8.59773 28.2299ZM17.5985 22.1094C17.168 23.1583 16.268 25.8428 15.7201 25.6941C15.2505 25.5689 14.9608 23.5339 15.6261 21.5225C15.9626 20.5127 16.6748 19.3074 17.0897 18.8379C17.7628 18.0865 18.5064 17.8359 18.6863 18.1414C18.9134 18.5405 17.8645 21.452 17.5985 22.1094ZM25.026 25.6627C24.8459 25.7567 24.6739 25.8193 24.5955 25.7723C24.5408 25.7409 24.6739 25.6157 24.6739 25.6157C24.6739 25.6157 25.6052 24.614 25.973 24.16C26.1845 23.894 26.4347 23.5809 26.7009 23.2286V23.3303C26.7009 24.5279 25.5425 25.3341 25.0258 25.6627H25.026ZM30.7551 24.3557C30.622 24.2617 30.6455 23.9487 31.0916 22.9703C31.2638 22.5868 31.6707 21.9451 32.3674 21.3267C32.4456 21.5772 32.5005 21.8199 32.4926 22.0468C32.4847 23.5574 31.4048 24.1209 30.7551 24.3557Z" fill="#56575A"/>
<path d="M37.3373 18.5405C35.8425 18.5482 34.5432 18.9083 33.4554 19.4405C33.0561 18.6499 32.657 17.9457 32.5866 17.429C32.5082 16.8265 32.4144 16.4585 32.5082 15.7385C32.6022 15.0184 33.0249 13.9931 33.017 13.9148C33.0093 13.8366 32.923 13.4687 32.0621 13.461C31.2012 13.4531 30.4577 13.6253 30.3716 13.8522C30.2855 14.0792 30.1211 14.5958 30.0115 15.1279C29.8628 15.9107 28.2898 18.7047 27.3898 20.1683C27.1001 19.5971 26.8496 19.0961 26.7948 18.6969C26.7165 18.0944 26.6226 17.7264 26.7165 17.0064C26.8105 16.2863 27.2332 15.2611 27.2253 15.1827C27.2174 15.1045 27.1313 14.7366 26.2704 14.7289C25.4094 14.721 24.6658 14.8932 24.5799 15.1201C24.4938 15.3472 24.3998 15.8793 24.2198 16.3959C24.0397 16.9126 21.9501 21.5773 21.4022 22.7825C21.1808 23.2703 20.9486 23.7531 20.7056 24.2305C20.7056 24.2305 20.6978 24.254 20.6743 24.2931C20.5979 24.4428 20.5197 24.5915 20.4396 24.7392V24.7469C20.3221 24.9584 20.1969 25.154 20.1343 25.154C20.0873 25.154 20.0012 24.5905 20.1499 23.8235C20.4629 22.2034 21.2065 19.6832 21.1988 19.5971C21.1988 19.5501 21.3396 19.1119 20.7135 18.8848C20.1029 18.6578 19.8839 19.0335 19.829 19.0335C19.7743 19.0335 19.735 19.1666 19.735 19.1666C19.735 19.1666 20.4161 16.3333 18.4359 16.3333C17.1993 16.3333 15.493 17.6873 14.6477 18.9083C13.6868 19.4312 12.7268 19.9556 11.7675 20.4815C11.3059 20.7398 10.8284 20.9981 10.3823 21.2406C10.3509 21.2094 10.3197 21.1701 10.2883 21.1389C7.89328 18.5796 3.46349 16.7716 3.65131 13.3358C3.7218 12.0835 4.15216 8.7962 12.1589 4.80465C18.7489 1.5565 23.9929 2.45649 24.9008 4.45234C26.1999 7.30136 22.091 12.5922 15.2817 13.3591C12.6833 13.6488 11.3214 12.6469 10.9771 12.2713C10.6171 11.8799 10.5622 11.8564 10.4291 11.9348C10.2101 12.0522 10.3509 12.4044 10.4291 12.6078C10.6327 13.1399 11.4701 14.0792 12.8867 14.5411C14.139 14.9479 17.1836 15.175 20.87 13.7505C24.9946 12.1538 28.2193 7.71611 27.2723 3.99849C26.3251 0.225981 20.0638 -1.01843 14.139 1.08686C10.6171 2.33933 6.79758 4.31152 4.05045 6.87873C0.786679 9.93101 0.270049 12.5843 0.481367 13.6958C1.2407 17.6403 6.68026 20.2075 8.85605 22.1094C8.74644 22.172 8.64456 22.2269 8.55862 22.2739C7.47064 22.8139 3.3225 24.9818 2.2894 27.275C1.11549 29.8735 2.47739 31.7364 3.37738 31.9866C6.17152 32.7616 9.04387 31.3685 10.5857 29.0673C12.1275 26.7663 11.9397 23.7765 11.2275 22.4068C11.2197 22.3912 11.2119 22.3754 11.1962 22.3598C11.478 22.1955 11.7675 22.0233 12.0493 21.859C12.5673 21.5528 13.0918 21.2579 13.6225 20.9744C13.3563 21.7024 13.1606 22.5712 13.0668 23.8235C12.9493 25.295 13.5519 27.2045 14.3424 27.9558C14.6947 28.2848 15.1095 28.2925 15.3757 28.2925C16.2992 28.2925 16.7141 27.5255 17.1758 26.6176C17.7393 25.5063 18.248 24.2149 18.248 24.2149C18.248 24.2149 17.6141 27.7056 19.336 27.7056C19.9621 27.7056 20.596 26.8915 20.8779 26.4768V26.4845C20.8779 26.4845 20.8935 26.461 20.9248 26.4063C20.9875 26.3046 21.0266 26.2418 21.0266 26.2418V26.2263C21.277 25.7879 21.8406 24.7939 22.678 23.1425C23.7581 21.0137 24.7991 18.3527 24.7991 18.3527C24.7991 18.3527 24.8931 19.0022 25.2138 20.0823C25.4018 20.7163 25.7929 21.4129 26.1061 22.0859C25.8557 22.4382 25.6991 22.6338 25.6991 22.6338L25.707 22.6417C25.5034 22.9077 25.2843 23.1972 25.0416 23.4792C24.1884 24.4965 23.1711 25.6629 23.0301 25.9992C22.8657 26.3984 22.9049 26.6881 23.2181 26.9229C23.4451 27.0951 23.8519 27.1184 24.2668 27.0951C25.0339 27.0402 25.5739 26.8524 25.8399 26.7351C26.2548 26.5864 26.74 26.3593 27.1939 26.0227C28.0315 25.4044 28.54 24.52 28.4932 23.354C28.4697 22.7121 28.2584 22.0703 28.0001 21.4676C28.0784 21.3581 28.1488 21.2485 28.2272 21.1389C29.5498 19.2057 30.5752 17.0846 30.5752 17.0846C30.5752 17.0846 30.6692 17.7342 30.9899 18.8144C31.1465 19.3623 31.4674 19.9571 31.7491 20.5362C30.5047 21.546 29.7376 22.7199 29.4637 23.4869C28.9707 24.9114 29.3541 25.5531 30.082 25.7018C30.4107 25.7723 30.8803 25.6157 31.2247 25.467C31.663 25.3262 32.1796 25.0836 32.6727 24.7234C33.5103 24.1053 34.3163 23.2442 34.2693 22.0782C34.2458 21.546 34.105 21.0214 33.9093 20.5127C34.9658 20.0746 36.3277 19.8319 38.0651 20.0353C41.7908 20.4736 42.5265 22.7981 42.3855 23.7766C42.2447 24.7548 41.462 25.2871 41.2038 25.4514C40.9454 25.6159 40.8594 25.6706 40.8829 25.7879C40.9141 25.9601 41.0394 25.9524 41.2586 25.921C41.5639 25.8663 43.2153 25.1305 43.2856 23.3303C43.4031 21.0293 41.2116 18.517 37.3373 18.5405ZM8.59773 28.2299C7.36104 29.576 5.63928 30.0848 4.89572 29.6544C4.09744 29.1925 4.41048 27.2045 5.92881 25.7802C6.8523 24.9114 8.04199 24.1051 8.83255 23.6121C9.01248 23.5025 9.27868 23.3461 9.5996 23.1504C9.65432 23.119 9.68571 23.1034 9.68571 23.1034L9.87353 22.9859C10.4291 25.0209 9.89703 26.8133 8.59773 28.2299ZM17.5985 22.1094C17.168 23.1583 16.268 25.8428 15.7201 25.6941C15.2505 25.5689 14.9608 23.5339 15.6261 21.5225C15.9626 20.5127 16.6748 19.3074 17.0897 18.8379C17.7628 18.0865 18.5064 17.8359 18.6863 18.1414C18.9134 18.5405 17.8645 21.452 17.5985 22.1094ZM25.026 25.6627C24.8459 25.7567 24.6739 25.8193 24.5955 25.7723C24.5408 25.7409 24.6739 25.6157 24.6739 25.6157C24.6739 25.6157 25.6052 24.614 25.973 24.16C26.1845 23.894 26.4347 23.5809 26.7009 23.2286V23.3303C26.7009 24.5279 25.5425 25.3341 25.0258 25.6627H25.026ZM30.7551 24.3557C30.622 24.2617 30.6455 23.9487 31.0916 22.9703C31.2638 22.5868 31.6707 21.9451 32.3674 21.3267C32.4456 21.5772 32.5005 21.8199 32.4926 22.0468C32.4847 23.5574 31.4048 24.1209 30.7551 24.3557Z" fill="#C7C8C9"/>
</svg>
